<?xml version="1.0" encoding="UTF-8"?>
<svg width="900px" height="796px" viewBox="0 0 900 796" version="1.1" xmlns="http://www.w3.org/2000/svg" xmlns:xlink="http://www.w3.org/1999/xlink">
    <defs>
        <linearGradient x1="38.0840398%" y1="10.9259641%" x2="50%" y2="89.0740359%" id="linearGradient-1">
            <stop stop-color="#2B088A" offset="0%"></stop>
            <stop stop-color="#5C17A0" offset="100%"></stop>
        </linearGradient>
        <path d="M0,3.41060513e-13 C600,3.41060513e-13 900,3.41060513e-13 900,3.41060513e-13 C900,165 819,191 755,310 C691,429 859,560 755,668 C651,776 639,787 409,795 C179,803 0,730 0,730 C0,730 0,486.666667 0,3.41060513e-13 Z" id="path-2"></path>
        <linearGradient x1="50%" y1="0%" x2="50%" y2="100%" id="linearGradient-4">
            <stop stop-color="#FFFFFF" stop-opacity="0.0243389423" offset="0%"></stop>
            <stop stop-color="#FFFFFF" stop-opacity="0.0407288024" offset="100%"></stop>
        </linearGradient>
    </defs>
    <mask id="mask-3" fill="white">
        <use xlink:href="#path-2"></use>
    </mask>
    <use id="Path" fill="url(#linearGradient-1)" xlink:href="#path-2"></use>
    <circle id="Oval" fill="url(#linearGradient-4)" style="mix-blend-mode: lighten;" mask="url(#mask-3)" cx="900.5" cy="0.5" r="491.5"></circle>
    <ellipse id="Oval" fill-opacity="0.03" fill="#FFFFFF" style="mix-blend-mode: overlay;" mask="url(#mask-3)" cx="-348" cy="-98" rx="549" ry="694"></ellipse>
</svg>
