<svg width="64" height="64" xmlns="http://www.w3.org/2000/svg">

 <g>
  <title>background</title>
  <rect fill="none" id="canvas_background" height="66" width="66" y="-1" x="-1"/>
 </g>
 <g>
  <title>Layer 1</title>
  <path stroke="null" id="svg_1" fill="none" d="m2.762431,-5.524861l21.237569,0l0,29.524861l-21.237569,0l0,-29.524861z"/>
  <path stroke="null" fill="#ffffff" id="svg_2" d="m41.392911,20.295087l0,-1.636984c0,-0.900341 -0.736643,-1.636984 -1.636984,-1.636984l-19.643809,0c-0.900341,0 -1.636984,0.736643 -1.636984,1.636984l0,6.547936c0,0.900341 0.736643,1.636984 1.636984,1.636984l19.643809,0c0.900341,0 1.636984,-0.736643 1.636984,-1.636984l0,-1.636984l1.636984,0l0,6.547936l-16.369841,0l0,18.006825c0,0.900341 0.736643,1.636984 1.636984,1.636984l3.273968,0c0.900341,0 1.636984,-0.736643 1.636984,-1.636984l0,-14.732857l13.095872,0l0,-13.095872l-4.910952,0z"/>
 </g>
</svg>