<svg width="64" height="64" xmlns="http://www.w3.org/2000/svg">

 <g>
  <title>background</title>
  <rect fill="none" id="canvas_background" height="66" width="66" y="-1" x="-1"/>
 </g>
 <g>
  <title>Layer 1</title>
  <g id="svg_1">
   <rect id="svg_2" width="24" height="24" fill="none"/>
  </g>
  <g stroke="null" id="svg_3">
   <path fill="#ffffff" stroke="null" id="svg_4" d="m44.495338,15.0197l-23.808426,0c-1.870662,0 -3.401204,1.530542 -3.401204,3.401204l0,23.808426c0,1.870662 1.530542,3.401204 3.401204,3.401204l23.808426,0c1.870662,0 3.401204,-1.530542 3.401204,-3.401204l0,-23.808426c0,-1.870662 -1.530542,-3.401204 -3.401204,-3.401204zm-10.152593,6.904443l1.802638,-1.802638l2.397849,2.397849l2.397849,-2.397849l1.802638,1.802638l-2.397849,2.397849l2.397849,2.397849l-1.802638,1.802638l-2.397849,-2.380843l-2.397849,2.397849l-1.802638,-1.802638l2.397849,-2.397849l-2.397849,-2.414855zm-11.53008,1.122397l8.503009,0l0,2.550903l-8.503009,0l0,-2.550903zm8.92816,14.080983l-3.401204,0l0,3.401204l-2.550903,0l0,-3.401204l-3.401204,0l0,-2.550903l3.401204,0l0,-3.401204l2.550903,0l0,3.401204l3.401204,0l0,2.550903zm11.053912,2.125752l-8.503009,0l0,-2.550903l8.503009,0l0,2.550903zm0,-4.251505l-8.503009,0l0,-2.550903l8.503009,0l0,2.550903z"/>
  </g>
 </g>
</svg>