<svg xmlns="http://www.w3.org/2000/svg" width="64" height="64" viewBox="0 0 64 64"><g fill="none" fill-rule="nonzero"><path fill="none" d="M0 0h64v64H0z"></path><path fill="#FFF" d="M32 48c-8.837 0-16-7.163-16-16s7.163-16 16-16 16 7.163 16 16-7.163 16-16 16zm0-3c7.18 0 13-5.82 13-13s-5.82-13-13-13-13 5.82-13 13 5.82 13 13 13zm-4-19.397c.273-.222.57-.43.89-.624.32-.194.665-.364 1.034-.51a6.607 6.607 0 0 1 1.188-.345A7.209 7.209 0 0 1 32.49 24c.693 0 1.318.09 1.874.269a4.09 4.09 0 0 1 1.42.77c.391.333.692.735.902 1.204.21.47.315.992.315 1.566 0 .545-.077 1.017-.232 1.415-.155.398-.35.744-.586 1.038a4.433 4.433 0 0 1-.78.764c-.283.215-.552.414-.807.597a6.237 6.237 0 0 0-.663.544c-.188.18-.308.38-.36.602l-.31 1.507H30.92l-.243-1.733c-.06-.351-.022-.658.11-.92.133-.261.315-.498.548-.71a6.37 6.37 0 0 1 .779-.602c.287-.19.557-.395.807-.614.25-.218.463-.462.636-.731.173-.27.26-.59.26-.963 0-.43-.146-.773-.437-1.028-.291-.255-.691-.382-1.2-.382-.39 0-.716.04-.978.118a4.006 4.006 0 0 0-.675.264c-.188.097-.352.185-.492.264a.85.85 0 0 1-.42.118c-.317 0-.553-.133-.707-.398L28 25.603zm2.034 12.557c0-.258.05-.498.15-.72.1-.223.236-.417.409-.582.173-.165.378-.296.613-.393.236-.096.494-.145.774-.145a2.027 2.027 0 0 1 1.382.538 1.745 1.745 0 0 1 .564 1.302 1.782 1.782 0 0 1-.564 1.313 1.948 1.948 0 0 1-.619.387c-.236.093-.49.14-.763.14-.28 0-.538-.047-.774-.14a1.805 1.805 0 0 1-1.172-1.7z"></path></g></svg>