<svg width="64" height="64" xmlns="http://www.w3.org/2000/svg">
 <title>cancel</title>

 <g>
  <title>background</title>
  <rect fill="none" id="canvas_background" height="402" width="582" y="-1" x="-1"/>
 </g>
 <g>
  <title>Layer 1</title>
  <path fill="#ffffff" id="svg_1" d="m32,4a28,28 0 1 0 28,28a28,28 0 0 0 -28,-28zm11.31,33.66a4,4 0 0 1 -5.66,5.66l-5.65,-5.66l-5.66,5.66a4,4 0 0 1 -5.66,-5.66l5.66,-5.66l-5.66,-5.66a4,4 0 0 1 5.66,-5.66l5.66,5.66l5.66,-5.66a4,4 0 0 1 5.66,5.66l-5.66,5.66l5.65,5.66z"/>
 </g>
</svg>