<svg xmlns="http://www.w3.org/2000/svg" width="64" height="64" viewBox="0 0 64 64"><g fill="none" fill-rule="nonzero"><path fill="#D8D8D8" fill-opacity="0" d="M0 0h64v64H0z"></path><path fill="#FFF" d="M45.44 24.306h-4.546L38.761 19H25.24l-2.133 5.306H22.4v-2.653h-3.2v2.653h-.64A2.555 2.555 0 0 0 16 26.853v15.583A2.574 2.574 0 0 0 18.578 45h26.844A2.574 2.574 0 0 0 48 42.436V26.853a2.555 2.555 0 0 0-2.56-2.547zm-24.107 0h-1.066v-1.592h1.066v1.592zM32 42.878c-5.293 0-9.6-4.285-9.6-9.551 0-5.267 4.307-9.551 9.6-9.551 5.293 0 9.6 4.284 9.6 9.55 0 5.267-4.307 9.552-9.6 9.552zm11.733-12.205a2.13 2.13 0 0 1-2.133-2.122 2.13 2.13 0 0 1 2.133-2.122 2.13 2.13 0 0 1 2.134 2.122 2.13 2.13 0 0 1-2.134 2.122zM32 26.96c3.53 0 6.4 2.856 6.4 6.368 0 3.51-2.87 6.367-6.4 6.367-3.53 0-6.4-2.856-6.4-6.367 0-3.512 2.87-6.368 6.4-6.368z"></path></g></svg>
