<?xml version="1.0" standalone="no"?>
<!DOCTYPE svg PUBLIC "-//W3C//DTD SVG 20010904//EN"
 "http://www.w3.org/TR/2001/REC-SVG-20010904/DTD/svg10.dtd">
<svg version="1.0" xmlns="http://www.w3.org/2000/svg"
 width="700.000000pt" height="700.000000pt" viewBox="0 0 700.000000 700.000000"
 preserveAspectRatio="xMidYMid meet">
<metadata>
Created by potrace 1.11, written by Peter Selinger 2001-2013
</metadata>
<g transform="translate(0.000000,700.000000) scale(0.100000,-0.100000)"
fill="#000000" stroke="none">
<path d="M6825 6989 c-777 -79 -1710 -396 -2555 -867 -507 -283 -1043 -649
-1475 -1006 l-140 -116 -55 5 c-30 3 -206 14 -390 25 -184 11 -363 22 -397 25
l-61 5 -774 -676 c-425 -372 -774 -680 -776 -683 -1 -4 51 -12 115 -19 399
-42 856 -198 1271 -435 l144 -81 -6 -66 c-3 -36 -9 -126 -13 -201 l-6 -136
-96 -23 c-135 -32 -343 -102 -447 -150 -325 -150 -496 -319 -648 -640 -137
-291 -232 -673 -285 -1145 -20 -176 -41 -462 -41 -559 l0 -49 173 6 c198 7
402 27 637 62 669 98 1154 299 1385 573 152 181 289 476 371 798 l18 70 194
13 c183 11 195 11 207 -6 7 -10 49 -83 94 -163 224 -407 375 -854 413 -1233 7
-64 15 -116 19 -115 3 2 311 351 683 776 l676 773 -6 67 c-3 37 -16 240 -29
452 -19 301 -21 389 -12 401 7 10 61 77 121 149 606 735 1130 1613 1451 2435
228 582 374 1169 411 1653 l7 92 -49 -1 c-27 -1 -85 -5 -129 -10z m-5126
-4523 c-78 -144 -127 -406 -145 -773 l-7 -143 54 0 c90 0 327 19 447 35 165
23 332 68 409 110 l66 36 -7 -72 c-28 -305 -271 -581 -580 -659 -108 -27 -265
-27 -371 0 -482 123 -725 650 -506 1095 47 95 129 197 209 260 111 88 299 163
414 164 l46 1 -29 -54z"/>
</g>
</svg>
